<svg xmlns="http://www.w3.org/2000/svg" viewBox="0 0 392.32 464.32"><defs><style>.cls-1{fill:#3d3d42;}</style></defs><title>Asset 1</title><g id="Layer_2" data-name="Layer 2"><g id="Layer_1-2" data-name="Layer 1"><path class="cls-1" d="M218,340c-7,6.47-13.87,12.65-20.53,19.09-15.75,15.27-31.33,30.72-47.08,46-18,17.44-35.74,35.14-54.28,52-7.43,6.74-13.54,15.22-23.55,19.13-11.73,4.59-22.94,4.27-33.77-2-12-6.9-16.92-17.36-16.9-31.29q.31-198,0-396c0-12.53,10.05-24.75,20-28.71a49,49,0,0,1,17.58-3.11c68-.21,136-.13,204-.13Q322.23,15,381,15c15.92,0,33.28,16.25,33.23,33q-.54,199-.06,398c0,14.75-12,28.9-25.8,32-14.59,3.3-27.33-.08-38.06-11-10.1-10.31-20.68-20.16-31.08-30.19q-12.89-12.44-25.83-24.83-27.07-26.06-54.15-52.12C232.3,353.12,225.19,346.68,218,340Z" transform="translate(-21.88 -14.98)"/></g></g></svg>